<?xml version="1.0" encoding="UTF-8" standalone="no"?>
<svg
   viewBox="0 0 38.000089 42.000031"
   width="380.00089"
   height="420.00031"
   version="1.1"
   id="svg10"
   xmlns="http://www.w3.org/2000/svg"
   xmlns:svg="http://www.w3.org/2000/svg"
   xmlns:rdf="http://www.w3.org/1999/02/22-rdf-syntax-ns#"
   xmlns:cc="http://creativecommons.org/ns#"
   xmlns:dc="http://purl.org/dc/elements/1.1/">
  <metadata
     id="metadata16">
    <rdf:RDF>
      <cc:Work
         rdf:about="">
        <dc:format>image/svg+xml</dc:format>
        <dc:type
           rdf:resource="http://purl.org/dc/dcmitype/StillImage" />
        <dc:title />
      </cc:Work>
    </rdf:RDF>
  </metadata>
  <defs
     id="defs14" />
  <path
     id="path2"
     style="display:inline;fill:#ffffff;fill-opacity:1"
     d="m 18.999805,5.8593751e-4 c -0.378625,0 -0.757375,0.0952425725 -1.096875,0.28574219249 C 14.548936,2.1693244 4.4510637,7.8373164 1.0970703,9.7203126 0.41807172,10.101313 0,10.805188 0,11.567188 v 18.867187 c 0,0.762 0.41809508,1.464899 1.0960938,1.845899 3.3559932,1.882996 13.4518422,7.550988 16.8068362,9.433984 0.677998,0.381 1.514166,0.381 2.193164,0 C 23.452088,39.831262 33.547936,34.16327 36.90293,32.280274 37.581928,31.899274 38,31.195203 38,30.433203 V 30.373243 11.566211 C 38,11.357363 37.96758,11.153252 37.90801,10.958594 37.84464,10.703742 37.732834,10.460113 37.535745,10.255469 37.364801,10.042466 37.15159,9.8594741 36.90293,9.7203126 33.546936,7.8373164 23.451088,2.1693244 20.096094,0.28632813 19.757094,0.09582851 19.37843,5.8593751e-4 18.999805,5.8593751e-4 Z M 19,7.0001954 c 7.726993,0 14,6.2730076 14,14.0000006 0,7.726992 -6.273007,14 -14,14 -7.726992,0 -13.9999999,-6.273008 -13.9999999,-14 C 5.0000001,13.273203 11.273008,7.0001954 19,7.0001954 Z" />
  <path
     id="path4"
     style="fill:#ffffff;fill-opacity:1"
     d="M 18.977539,0 C 18.57904,-0.002 18.180492,0.09077363 17.841992,0.28027344 14.498996,2.1532716 4.436942,7.7883536 1.0939453,9.6603517 0.416946,10.038352 0,10.73829 0,11.496289 v 18.758985 c 0,0.454999 0.03790652,0.793024 0.30390625,1.149023 L 6.7285157,27.739649 C 5.6271121,25.7399 5.0000001,23.442726 5.0000001,21.000196 5.0000001,13.273203 11.273008,7.0001954 19,7.0001954 c 5.123069,0 9.606979,2.7576597 12.047266,6.8681646 l 6.439649,-3.673047 C 37.302915,9.9543126 37.096953,9.7713359 36.826954,9.6193361 33.483957,7.7473379 23.456083,2.1602794 20.113086,0.28828125 19.774587,0.09878144 19.376039,0.002 18.977539,0 Z" />
  <path
     fill="#3949ab"
     fill-rule="evenodd"
     d="m 37.485,10.205282 c 0.516,0.483 0.506,1.211 0.506,1.784 0,3.795 -0.032,14.589 0.009,18.384 0.004,0.396 -0.127,0.813 -0.323,1.127 l -19.084,-10.5 z"
     clip-rule="evenodd"
     id="path2381"
     style="display:inline;fill:#ffffff;fill-opacity:1" />
  <circle
     style="display:inline;fill:#ffffff;fill-opacity:0.994819;stroke:#ffffff;stroke-width:0.47811;stroke-opacity:1"
     id="path2438"
     cx="18.916838"
     cy="21.052992"
     r="6.8119607" />
</svg>
