<svg id="visual" viewBox="0 0 675 900" width="675" height="900" xmlns="http://www.w3.org/2000/svg" xmlns:xlink="http://www.w3.org/1999/xlink" version="1.1"><g stroke-width="1" stroke-linejoin="bevel"><path d="M262 389.7L123 515.3L250 527.3Z" fill="#3d3d3d" stroke="#d79921"></path><path d="M262 389.7L113 371.7L123 515.3Z" fill="#212121" stroke="#d79921"></path><path d="M123 515.3L145 637.9L250 527.3Z" fill="#212121" stroke="#d79921"></path><path d="M262 389.7L120 276.1L113 371.7Z" fill="#3d3d3d" stroke="#d79921"></path><path d="M0 399.7L0 502.3L123 515.3Z" fill="#212121" stroke="#d79921"></path><path d="M123 515.3L0 623.9L145 637.9Z" fill="#262626" stroke="#d79921"></path><path d="M0 399.7L123 515.3L113 371.7Z" fill="#3d3d3d" stroke="#d79921"></path><path d="M120 276.1L0 399.7L113 371.7Z" fill="#3d3d3d" stroke="#d79921"></path><path d="M145 637.9L260 645.9L250 527.3Z" fill="#444444" stroke="#d79921"></path><path d="M250 527.3L414 516.3L262 389.7Z" fill="#444444" stroke="#d79921"></path><path d="M416 365.7L282 250.1L262 389.7Z" fill="#242424" stroke="#d79921"></path><path d="M262 389.7L282 250.1L120 276.1Z" fill="#1f1f1f" stroke="#d79921"></path><path d="M390 631.9L414 516.3L250 527.3Z" fill="#444444" stroke="#d79921"></path><path d="M414 516.3L416 365.7L262 389.7Z" fill="#444444" stroke="#d79921"></path><path d="M0 502.3L0 623.9L123 515.3Z" fill="#3d3d3d" stroke="#d79921"></path><path d="M260 645.9L390 631.9L250 527.3Z" fill="#3d3d3d" stroke="#d79921"></path><path d="M120 276.1L0 236.1L0 399.7Z" fill="#4b4b4b" stroke="#d79921"></path><path d="M123 123.6L0 236.1L120 276.1Z" fill="#262626" stroke="#d79921"></path><path d="M416 365.7L410 256.1L282 250.1Z" fill="#3d3d3d" stroke="#d79921"></path><path d="M282 250.1L251 149.6L120 276.1Z" fill="#232323" stroke="#d79921"></path><path d="M387 142.6L251 149.6L282 250.1Z" fill="#212121" stroke="#d79921"></path><path d="M0 623.9L126 761.4L145 637.9Z" fill="#2f2f2f" stroke="#d79921"></path><path d="M145 637.9L126 761.4L260 645.9Z" fill="#262626" stroke="#d79921"></path><path d="M260 645.9L412 750.4L390 631.9Z" fill="#444444" stroke="#d79921"></path><path d="M126 761.4L263 781.4L260 645.9Z" fill="#1f1f1f" stroke="#d79921"></path><path d="M251 149.6L123 123.6L120 276.1Z" fill="#444444" stroke="#d79921"></path><path d="M414 516.3L529 365.7L416 365.7Z" fill="#1f1f1f" stroke="#d79921"></path><path d="M416 365.7L524 272.1L410 256.1Z" fill="#363636" stroke="#d79921"></path><path d="M558 535.3L529 365.7L414 516.3Z" fill="#282828" stroke="#d79921"></path><path d="M410 256.1L387 142.6L282 250.1Z" fill="#2f2f2f" stroke="#d79921"></path><path d="M251 149.6L144 0L123 123.6Z" fill="#262626" stroke="#d79921"></path><path d="M554 126.6L387 142.6L410 256.1Z" fill="#3d3d3d" stroke="#d79921"></path><path d="M263 781.4L412 750.4L260 645.9Z" fill="#363636" stroke="#d79921"></path><path d="M528 643.9L558 535.3L414 516.3Z" fill="#3d3d3d" stroke="#d79921"></path><path d="M0 623.9L0 773.4L126 761.4Z" fill="#282828" stroke="#d79921"></path><path d="M126 761.4L114 900L263 781.4Z" fill="#3d3d3d" stroke="#d79921"></path><path d="M528 643.9L414 516.3L390 631.9Z" fill="#282828" stroke="#d79921"></path><path d="M529 365.7L524 272.1L416 365.7Z" fill="#3d3d3d" stroke="#d79921"></path><path d="M675 255.1L524 272.1L529 365.7Z" fill="#262626" stroke="#d79921"></path><path d="M123 123.6L0 121.6L0 236.1Z" fill="#3d3d3d" stroke="#d79921"></path><path d="M412 750.4L528 643.9L390 631.9Z" fill="#262626" stroke="#d79921"></path><path d="M0 773.4L114 900L126 761.4Z" fill="#232323" stroke="#d79921"></path><path d="M263 781.4L384 900L412 750.4Z" fill="#232323" stroke="#d79921"></path><path d="M257 0L144 0L251 149.6Z" fill="#262626" stroke="#d79921"></path><path d="M123 123.6L0 0L0 121.6Z" fill="#282828" stroke="#d79921"></path><path d="M114 900L283 900L263 781.4Z" fill="#363636" stroke="#d79921"></path><path d="M412 750.4L561 762.4L528 643.9Z" fill="#4b4b4b" stroke="#d79921"></path><path d="M387 142.6L257 0L251 149.6Z" fill="#444444" stroke="#d79921"></path><path d="M417 0L257 0L387 142.6Z" fill="#232323" stroke="#d79921"></path><path d="M547 900L561 762.4L412 750.4Z" fill="#3d3d3d" stroke="#d79921"></path><path d="M675 645.9L675 505.3L558 535.3Z" fill="#1f1f1f" stroke="#d79921"></path><path d="M675 645.9L558 535.3L528 643.9Z" fill="#212121" stroke="#d79921"></path><path d="M558 535.3L675 396.7L529 365.7Z" fill="#242424" stroke="#d79921"></path><path d="M675 505.3L675 396.7L558 535.3Z" fill="#3d3d3d" stroke="#d79921"></path><path d="M524 272.1L554 126.6L410 256.1Z" fill="#444444" stroke="#d79921"></path><path d="M283 900L384 900L263 781.4Z" fill="#1f1f1f" stroke="#d79921"></path><path d="M675 255.1L554 126.6L524 272.1Z" fill="#262626" stroke="#d79921"></path><path d="M0 773.4L0 900L114 900Z" fill="#3d3d3d" stroke="#d79921"></path><path d="M144 0L0 0L123 123.6Z" fill="#212121" stroke="#d79921"></path><path d="M554 126.6L417 0L387 142.6Z" fill="#1f1f1f" stroke="#d79921"></path><path d="M561 762.4L675 645.9L528 643.9Z" fill="#262626" stroke="#d79921"></path><path d="M675 396.7L675 255.1L529 365.7Z" fill="#282828" stroke="#d79921"></path><path d="M384 900L547 900L412 750.4Z" fill="#444444" stroke="#d79921"></path><path d="M561 762.4L675 768.4L675 645.9Z" fill="#444444" stroke="#d79921"></path><path d="M675 0L544 0L554 126.6Z" fill="#2f2f2f" stroke="#d79921"></path><path d="M554 126.6L544 0L417 0Z" fill="#212121" stroke="#d79921"></path><path d="M675 900L675 768.4L561 762.4Z" fill="#282828" stroke="#d79921"></path><path d="M675 255.1L675 136.6L554 126.6Z" fill="#2f2f2f" stroke="#d79921"></path><path d="M547 900L675 900L561 762.4Z" fill="#363636" stroke="#d79921"></path><path d="M675 136.6L675 0L554 126.6Z" fill="#282828" stroke="#d79921"></path></g></svg>